<mxfile host="app.diagrams.net" modified="2022-06-14T07:06:20.190Z" agent="5.0 (Windows NT 10.0; Win64; x64) AppleWebKit/537.36 (KHTML, like Gecko) Chrome/102.0.0.0 Safari/537.36" etag="kNJthWmTdyq2HERqFvoE" version="20.0.1" type="github">
  <diagram id="C5RBs43oDa-KdzZeNtuy" name="Page-1">
    <mxGraphModel dx="1025" dy="548" grid="1" gridSize="10" guides="1" tooltips="1" connect="1" arrows="1" fold="1" page="1" pageScale="1" pageWidth="827" pageHeight="1169" math="0" shadow="0">
      <root>
        <mxCell id="WIyWlLk6GJQsqaUBKTNV-0" />
        <mxCell id="WIyWlLk6GJQsqaUBKTNV-1" parent="WIyWlLk6GJQsqaUBKTNV-0" />
        <mxCell id="t49LLacQzpLt2Tf5FMU3-20" value="User" style="swimlane;fontStyle=1;childLayout=stackLayout;horizontal=1;startSize=26;fillColor=#f5f5f5;horizontalStack=0;resizeParent=1;resizeParentMax=0;resizeLast=0;collapsible=1;marginBottom=0;rounded=0;sketch=0;strokeColor=default;fontColor=#333333;" vertex="1" parent="WIyWlLk6GJQsqaUBKTNV-1">
          <mxGeometry x="90" y="10" width="110.77" height="234" as="geometry" />
        </mxCell>
        <mxCell id="t49LLacQzpLt2Tf5FMU3-21" value="Id" style="text;strokeColor=none;fillColor=none;align=left;verticalAlign=middle;spacingLeft=4;spacingRight=4;overflow=hidden;rotatable=0;points=[[0,0.5],[1,0.5]];portConstraint=eastwest;rounded=0;sketch=0;fontSize=10;fontStyle=0" vertex="1" parent="t49LLacQzpLt2Tf5FMU3-20">
          <mxGeometry y="26" width="110.77" height="26" as="geometry" />
        </mxCell>
        <mxCell id="t49LLacQzpLt2Tf5FMU3-54" value="name " style="text;strokeColor=none;fillColor=none;align=left;verticalAlign=middle;spacingLeft=4;spacingRight=4;overflow=hidden;rotatable=0;points=[[0,0.5],[1,0.5]];portConstraint=eastwest;rounded=0;sketch=0;fontSize=10;fontStyle=0" vertex="1" parent="t49LLacQzpLt2Tf5FMU3-20">
          <mxGeometry y="52" width="110.77" height="26" as="geometry" />
        </mxCell>
        <mxCell id="t49LLacQzpLt2Tf5FMU3-22" value="email" style="text;strokeColor=none;fillColor=none;align=left;verticalAlign=middle;spacingLeft=4;spacingRight=4;overflow=hidden;rotatable=0;points=[[0,0.5],[1,0.5]];portConstraint=eastwest;rounded=0;sketch=0;fontSize=10;fontStyle=0" vertex="1" parent="t49LLacQzpLt2Tf5FMU3-20">
          <mxGeometry y="78" width="110.77" height="26" as="geometry" />
        </mxCell>
        <mxCell id="t49LLacQzpLt2Tf5FMU3-25" value="email_varified_at" style="text;strokeColor=none;fillColor=none;align=left;verticalAlign=middle;spacingLeft=4;spacingRight=4;overflow=hidden;rotatable=0;points=[[0,0.5],[1,0.5]];portConstraint=eastwest;rounded=0;sketch=0;fontSize=10;fontStyle=0" vertex="1" parent="t49LLacQzpLt2Tf5FMU3-20">
          <mxGeometry y="104" width="110.77" height="26" as="geometry" />
        </mxCell>
        <mxCell id="t49LLacQzpLt2Tf5FMU3-26" value="Password" style="text;strokeColor=none;fillColor=none;align=left;verticalAlign=middle;spacingLeft=4;spacingRight=4;overflow=hidden;rotatable=0;points=[[0,0.5],[1,0.5]];portConstraint=eastwest;rounded=0;sketch=0;fontSize=10;fontStyle=0" vertex="1" parent="t49LLacQzpLt2Tf5FMU3-20">
          <mxGeometry y="130" width="110.77" height="26" as="geometry" />
        </mxCell>
        <mxCell id="t49LLacQzpLt2Tf5FMU3-28" value="remember_token" style="text;strokeColor=none;fillColor=none;align=left;verticalAlign=middle;spacingLeft=4;spacingRight=4;overflow=hidden;rotatable=0;points=[[0,0.5],[1,0.5]];portConstraint=eastwest;rounded=0;sketch=0;fontSize=10;fontStyle=0" vertex="1" parent="t49LLacQzpLt2Tf5FMU3-20">
          <mxGeometry y="156" width="110.77" height="26" as="geometry" />
        </mxCell>
        <mxCell id="t49LLacQzpLt2Tf5FMU3-29" value="create_at" style="text;strokeColor=none;fillColor=none;align=left;verticalAlign=middle;spacingLeft=4;spacingRight=4;overflow=hidden;rotatable=0;points=[[0,0.5],[1,0.5]];portConstraint=eastwest;rounded=0;sketch=0;fontSize=10;fontStyle=0" vertex="1" parent="t49LLacQzpLt2Tf5FMU3-20">
          <mxGeometry y="182" width="110.77" height="26" as="geometry" />
        </mxCell>
        <mxCell id="t49LLacQzpLt2Tf5FMU3-27" value="update_at" style="text;strokeColor=none;fillColor=none;align=left;verticalAlign=middle;spacingLeft=4;spacingRight=4;overflow=hidden;rotatable=0;points=[[0,0.5],[1,0.5]];portConstraint=eastwest;rounded=0;sketch=0;fontSize=10;fontStyle=0" vertex="1" parent="t49LLacQzpLt2Tf5FMU3-20">
          <mxGeometry y="208" width="110.77" height="26" as="geometry" />
        </mxCell>
        <mxCell id="t49LLacQzpLt2Tf5FMU3-44" value="Brands" style="swimlane;fontStyle=1;childLayout=stackLayout;horizontal=1;startSize=26;fillColor=#f5f5f5;horizontalStack=0;resizeParent=1;resizeParentMax=0;resizeLast=0;collapsible=1;marginBottom=0;rounded=0;sketch=0;strokeColor=default;fontColor=#333333;" vertex="1" parent="WIyWlLk6GJQsqaUBKTNV-1">
          <mxGeometry x="110" y="360" width="110.77" height="130" as="geometry" />
        </mxCell>
        <mxCell id="t49LLacQzpLt2Tf5FMU3-45" value="Id" style="text;strokeColor=none;fillColor=none;align=left;verticalAlign=middle;spacingLeft=4;spacingRight=4;overflow=hidden;rotatable=0;points=[[0,0.5],[1,0.5]];portConstraint=eastwest;rounded=0;sketch=0;fontSize=10;fontStyle=0" vertex="1" parent="t49LLacQzpLt2Tf5FMU3-44">
          <mxGeometry y="26" width="110.77" height="26" as="geometry" />
        </mxCell>
        <mxCell id="t49LLacQzpLt2Tf5FMU3-55" value="name " style="text;strokeColor=none;fillColor=none;align=left;verticalAlign=middle;spacingLeft=4;spacingRight=4;overflow=hidden;rotatable=0;points=[[0,0.5],[1,0.5]];portConstraint=eastwest;rounded=0;sketch=0;fontSize=10;fontStyle=0" vertex="1" parent="t49LLacQzpLt2Tf5FMU3-44">
          <mxGeometry y="52" width="110.77" height="26" as="geometry" />
        </mxCell>
        <mxCell id="t49LLacQzpLt2Tf5FMU3-50" value="create_at" style="text;strokeColor=none;fillColor=none;align=left;verticalAlign=middle;spacingLeft=4;spacingRight=4;overflow=hidden;rotatable=0;points=[[0,0.5],[1,0.5]];portConstraint=eastwest;rounded=0;sketch=0;fontSize=10;fontStyle=0" vertex="1" parent="t49LLacQzpLt2Tf5FMU3-44">
          <mxGeometry y="78" width="110.77" height="26" as="geometry" />
        </mxCell>
        <mxCell id="t49LLacQzpLt2Tf5FMU3-51" value="update_at" style="text;strokeColor=none;fillColor=none;align=left;verticalAlign=middle;spacingLeft=4;spacingRight=4;overflow=hidden;rotatable=0;points=[[0,0.5],[1,0.5]];portConstraint=eastwest;rounded=0;sketch=0;fontSize=10;fontStyle=0" vertex="1" parent="t49LLacQzpLt2Tf5FMU3-44">
          <mxGeometry y="104" width="110.77" height="26" as="geometry" />
        </mxCell>
        <mxCell id="t49LLacQzpLt2Tf5FMU3-62" value="Category" style="swimlane;fontStyle=1;childLayout=stackLayout;horizontal=1;startSize=26;fillColor=#f5f5f5;horizontalStack=0;resizeParent=1;resizeParentMax=0;resizeLast=0;collapsible=1;marginBottom=0;rounded=0;sketch=0;strokeColor=default;fontColor=#333333;" vertex="1" parent="WIyWlLk6GJQsqaUBKTNV-1">
          <mxGeometry x="385" y="360" width="110.77" height="156" as="geometry" />
        </mxCell>
        <mxCell id="t49LLacQzpLt2Tf5FMU3-63" value="Id" style="text;strokeColor=none;fillColor=none;align=left;verticalAlign=middle;spacingLeft=4;spacingRight=4;overflow=hidden;rotatable=0;points=[[0,0.5],[1,0.5]];portConstraint=eastwest;rounded=0;sketch=0;fontSize=10;fontStyle=0" vertex="1" parent="t49LLacQzpLt2Tf5FMU3-62">
          <mxGeometry y="26" width="110.77" height="26" as="geometry" />
        </mxCell>
        <mxCell id="t49LLacQzpLt2Tf5FMU3-64" value="name " style="text;strokeColor=none;fillColor=none;align=left;verticalAlign=middle;spacingLeft=4;spacingRight=4;overflow=hidden;rotatable=0;points=[[0,0.5],[1,0.5]];portConstraint=eastwest;rounded=0;sketch=0;fontSize=10;fontStyle=0" vertex="1" parent="t49LLacQzpLt2Tf5FMU3-62">
          <mxGeometry y="52" width="110.77" height="26" as="geometry" />
        </mxCell>
        <mxCell id="t49LLacQzpLt2Tf5FMU3-67" value="sub_category" style="text;strokeColor=none;fillColor=none;align=left;verticalAlign=middle;spacingLeft=4;spacingRight=4;overflow=hidden;rotatable=0;points=[[0,0.5],[1,0.5]];portConstraint=eastwest;rounded=0;sketch=0;fontSize=10;fontStyle=0" vertex="1" parent="t49LLacQzpLt2Tf5FMU3-62">
          <mxGeometry y="78" width="110.77" height="26" as="geometry" />
        </mxCell>
        <mxCell id="t49LLacQzpLt2Tf5FMU3-65" value="create_at" style="text;strokeColor=none;fillColor=none;align=left;verticalAlign=middle;spacingLeft=4;spacingRight=4;overflow=hidden;rotatable=0;points=[[0,0.5],[1,0.5]];portConstraint=eastwest;rounded=0;sketch=0;fontSize=10;fontStyle=0" vertex="1" parent="t49LLacQzpLt2Tf5FMU3-62">
          <mxGeometry y="104" width="110.77" height="26" as="geometry" />
        </mxCell>
        <mxCell id="t49LLacQzpLt2Tf5FMU3-66" value="update_at" style="text;strokeColor=none;fillColor=none;align=left;verticalAlign=middle;spacingLeft=4;spacingRight=4;overflow=hidden;rotatable=0;points=[[0,0.5],[1,0.5]];portConstraint=eastwest;rounded=0;sketch=0;fontSize=10;fontStyle=0" vertex="1" parent="t49LLacQzpLt2Tf5FMU3-62">
          <mxGeometry y="130" width="110.77" height="26" as="geometry" />
        </mxCell>
        <mxCell id="t49LLacQzpLt2Tf5FMU3-91" value="" style="edgeStyle=none;rounded=1;sketch=0;orthogonalLoop=1;jettySize=auto;html=1;fontSize=10;" edge="1" parent="WIyWlLk6GJQsqaUBKTNV-1" source="t49LLacQzpLt2Tf5FMU3-68" target="t49LLacQzpLt2Tf5FMU3-89">
          <mxGeometry relative="1" as="geometry" />
        </mxCell>
        <mxCell id="t49LLacQzpLt2Tf5FMU3-68" value="Location" style="swimlane;fontStyle=1;childLayout=stackLayout;horizontal=1;startSize=26;fillColor=#f5f5f5;horizontalStack=0;resizeParent=1;resizeParentMax=0;resizeLast=0;collapsible=1;marginBottom=0;rounded=0;sketch=0;strokeColor=default;fontColor=#333333;" vertex="1" parent="WIyWlLk6GJQsqaUBKTNV-1">
          <mxGeometry x="250" y="360" width="110.77" height="156" as="geometry" />
        </mxCell>
        <mxCell id="t49LLacQzpLt2Tf5FMU3-69" value="Id" style="text;strokeColor=none;fillColor=none;align=left;verticalAlign=middle;spacingLeft=4;spacingRight=4;overflow=hidden;rotatable=0;points=[[0,0.5],[1,0.5]];portConstraint=eastwest;rounded=0;sketch=0;fontSize=10;fontStyle=0" vertex="1" parent="t49LLacQzpLt2Tf5FMU3-68">
          <mxGeometry y="26" width="110.77" height="26" as="geometry" />
        </mxCell>
        <mxCell id="t49LLacQzpLt2Tf5FMU3-70" value="name " style="text;strokeColor=none;fillColor=none;align=left;verticalAlign=middle;spacingLeft=4;spacingRight=4;overflow=hidden;rotatable=0;points=[[0,0.5],[1,0.5]];portConstraint=eastwest;rounded=0;sketch=0;fontSize=10;fontStyle=0" vertex="1" parent="t49LLacQzpLt2Tf5FMU3-68">
          <mxGeometry y="52" width="110.77" height="26" as="geometry" />
        </mxCell>
        <mxCell id="t49LLacQzpLt2Tf5FMU3-71" value="sub_category" style="text;strokeColor=none;fillColor=none;align=left;verticalAlign=middle;spacingLeft=4;spacingRight=4;overflow=hidden;rotatable=0;points=[[0,0.5],[1,0.5]];portConstraint=eastwest;rounded=0;sketch=0;fontSize=10;fontStyle=0" vertex="1" parent="t49LLacQzpLt2Tf5FMU3-68">
          <mxGeometry y="78" width="110.77" height="26" as="geometry" />
        </mxCell>
        <mxCell id="t49LLacQzpLt2Tf5FMU3-72" value="create_at" style="text;strokeColor=none;fillColor=none;align=left;verticalAlign=middle;spacingLeft=4;spacingRight=4;overflow=hidden;rotatable=0;points=[[0,0.5],[1,0.5]];portConstraint=eastwest;rounded=0;sketch=0;fontSize=10;fontStyle=0" vertex="1" parent="t49LLacQzpLt2Tf5FMU3-68">
          <mxGeometry y="104" width="110.77" height="26" as="geometry" />
        </mxCell>
        <mxCell id="t49LLacQzpLt2Tf5FMU3-73" value="update_at" style="text;strokeColor=none;fillColor=none;align=left;verticalAlign=middle;spacingLeft=4;spacingRight=4;overflow=hidden;rotatable=0;points=[[0,0.5],[1,0.5]];portConstraint=eastwest;rounded=0;sketch=0;fontSize=10;fontStyle=0" vertex="1" parent="t49LLacQzpLt2Tf5FMU3-68">
          <mxGeometry y="130" width="110.77" height="26" as="geometry" />
        </mxCell>
        <mxCell id="t49LLacQzpLt2Tf5FMU3-74" value="ads" style="swimlane;fontStyle=1;childLayout=stackLayout;horizontal=1;startSize=26;fillColor=#f5f5f5;horizontalStack=0;resizeParent=1;resizeParentMax=0;resizeLast=0;collapsible=1;marginBottom=0;rounded=0;sketch=0;strokeColor=default;fontColor=#333333;" vertex="1" parent="WIyWlLk6GJQsqaUBKTNV-1">
          <mxGeometry x="245" y="10" width="110.77" height="312" as="geometry" />
        </mxCell>
        <mxCell id="t49LLacQzpLt2Tf5FMU3-75" value="Id" style="text;strokeColor=none;fillColor=none;align=left;verticalAlign=middle;spacingLeft=4;spacingRight=4;overflow=hidden;rotatable=0;points=[[0,0.5],[1,0.5]];portConstraint=eastwest;rounded=0;sketch=0;fontSize=10;fontStyle=0" vertex="1" parent="t49LLacQzpLt2Tf5FMU3-74">
          <mxGeometry y="26" width="110.77" height="26" as="geometry" />
        </mxCell>
        <mxCell id="t49LLacQzpLt2Tf5FMU3-79" value="name" style="text;strokeColor=none;fillColor=none;align=left;verticalAlign=middle;spacingLeft=4;spacingRight=4;overflow=hidden;rotatable=0;points=[[0,0.5],[1,0.5]];portConstraint=eastwest;rounded=0;sketch=0;fontSize=10;fontStyle=0" vertex="1" parent="t49LLacQzpLt2Tf5FMU3-74">
          <mxGeometry y="52" width="110.77" height="26" as="geometry" />
        </mxCell>
        <mxCell id="t49LLacQzpLt2Tf5FMU3-80" value="title" style="text;strokeColor=none;fillColor=none;align=left;verticalAlign=middle;spacingLeft=4;spacingRight=4;overflow=hidden;rotatable=0;points=[[0,0.5],[1,0.5]];portConstraint=eastwest;rounded=0;sketch=0;fontSize=10;fontStyle=0" vertex="1" parent="t49LLacQzpLt2Tf5FMU3-74">
          <mxGeometry y="78" width="110.77" height="26" as="geometry" />
        </mxCell>
        <mxCell id="t49LLacQzpLt2Tf5FMU3-81" value="discription" style="text;strokeColor=none;fillColor=none;align=left;verticalAlign=middle;spacingLeft=4;spacingRight=4;overflow=hidden;rotatable=0;points=[[0,0.5],[1,0.5]];portConstraint=eastwest;rounded=0;sketch=0;fontSize=10;fontStyle=0" vertex="1" parent="t49LLacQzpLt2Tf5FMU3-74">
          <mxGeometry y="104" width="110.77" height="26" as="geometry" />
        </mxCell>
        <mxCell id="t49LLacQzpLt2Tf5FMU3-82" value="user_id" style="text;strokeColor=none;fillColor=none;align=left;verticalAlign=middle;spacingLeft=4;spacingRight=4;overflow=hidden;rotatable=0;points=[[0,0.5],[1,0.5]];portConstraint=eastwest;rounded=0;sketch=0;fontSize=10;fontStyle=0" vertex="1" parent="t49LLacQzpLt2Tf5FMU3-74">
          <mxGeometry y="130" width="110.77" height="26" as="geometry" />
        </mxCell>
        <mxCell id="t49LLacQzpLt2Tf5FMU3-83" value="location_id" style="text;strokeColor=none;fillColor=none;align=left;verticalAlign=middle;spacingLeft=4;spacingRight=4;overflow=hidden;rotatable=0;points=[[0,0.5],[1,0.5]];portConstraint=eastwest;rounded=0;sketch=0;fontSize=10;fontStyle=0" vertex="1" parent="t49LLacQzpLt2Tf5FMU3-74">
          <mxGeometry y="156" width="110.77" height="26" as="geometry" />
        </mxCell>
        <mxCell id="t49LLacQzpLt2Tf5FMU3-84" value="category_id" style="text;strokeColor=none;fillColor=none;align=left;verticalAlign=middle;spacingLeft=4;spacingRight=4;overflow=hidden;rotatable=0;points=[[0,0.5],[1,0.5]];portConstraint=eastwest;rounded=0;sketch=0;fontSize=10;fontStyle=0" vertex="1" parent="t49LLacQzpLt2Tf5FMU3-74">
          <mxGeometry y="182" width="110.77" height="26" as="geometry" />
        </mxCell>
        <mxCell id="t49LLacQzpLt2Tf5FMU3-85" value="brand_id" style="text;strokeColor=none;fillColor=none;align=left;verticalAlign=middle;spacingLeft=4;spacingRight=4;overflow=hidden;rotatable=0;points=[[0,0.5],[1,0.5]];portConstraint=eastwest;rounded=0;sketch=0;fontSize=10;fontStyle=0" vertex="1" parent="t49LLacQzpLt2Tf5FMU3-74">
          <mxGeometry y="208" width="110.77" height="26" as="geometry" />
        </mxCell>
        <mxCell id="t49LLacQzpLt2Tf5FMU3-86" value="price" style="text;strokeColor=none;fillColor=none;align=left;verticalAlign=middle;spacingLeft=4;spacingRight=4;overflow=hidden;rotatable=0;points=[[0,0.5],[1,0.5]];portConstraint=eastwest;rounded=0;sketch=0;fontSize=10;fontStyle=0" vertex="1" parent="t49LLacQzpLt2Tf5FMU3-74">
          <mxGeometry y="234" width="110.77" height="26" as="geometry" />
        </mxCell>
        <mxCell id="t49LLacQzpLt2Tf5FMU3-88" value="create_at" style="text;strokeColor=none;fillColor=none;align=left;verticalAlign=middle;spacingLeft=4;spacingRight=4;overflow=hidden;rotatable=0;points=[[0,0.5],[1,0.5]];portConstraint=eastwest;rounded=0;sketch=0;fontSize=10;fontStyle=0" vertex="1" parent="t49LLacQzpLt2Tf5FMU3-74">
          <mxGeometry y="260" width="110.77" height="26" as="geometry" />
        </mxCell>
        <mxCell id="t49LLacQzpLt2Tf5FMU3-89" value="update_at" style="text;strokeColor=none;fillColor=none;align=left;verticalAlign=middle;spacingLeft=4;spacingRight=4;overflow=hidden;rotatable=0;points=[[0,0.5],[1,0.5]];portConstraint=eastwest;rounded=0;sketch=0;fontSize=10;fontStyle=0" vertex="1" parent="t49LLacQzpLt2Tf5FMU3-74">
          <mxGeometry y="286" width="110.77" height="26" as="geometry" />
        </mxCell>
        <mxCell id="t49LLacQzpLt2Tf5FMU3-90" value="" style="endArrow=classic;html=1;rounded=1;sketch=0;fontSize=10;entryX=0;entryY=0.231;entryDx=0;entryDy=0;entryPerimeter=0;" edge="1" parent="WIyWlLk6GJQsqaUBKTNV-1" target="t49LLacQzpLt2Tf5FMU3-81">
          <mxGeometry width="50" height="50" relative="1" as="geometry">
            <mxPoint x="200.77" y="120" as="sourcePoint" />
            <mxPoint x="290.77" y="120" as="targetPoint" />
          </mxGeometry>
        </mxCell>
        <mxCell id="t49LLacQzpLt2Tf5FMU3-96" value="" style="edgeStyle=elbowEdgeStyle;elbow=vertical;endArrow=classic;html=1;rounded=1;sketch=0;fontSize=10;entryX=0.182;entryY=1.049;entryDx=0;entryDy=0;entryPerimeter=0;" edge="1" parent="WIyWlLk6GJQsqaUBKTNV-1" target="t49LLacQzpLt2Tf5FMU3-89">
          <mxGeometry width="50" height="50" relative="1" as="geometry">
            <mxPoint x="155" y="360" as="sourcePoint" />
            <mxPoint x="105" y="310" as="targetPoint" />
          </mxGeometry>
        </mxCell>
        <mxCell id="t49LLacQzpLt2Tf5FMU3-98" value="" style="edgeStyle=elbowEdgeStyle;elbow=vertical;endArrow=classic;html=1;rounded=1;sketch=0;fontSize=10;entryX=0.837;entryY=1.019;entryDx=0;entryDy=0;entryPerimeter=0;exitX=0.5;exitY=0;exitDx=0;exitDy=0;" edge="1" parent="WIyWlLk6GJQsqaUBKTNV-1" source="t49LLacQzpLt2Tf5FMU3-62" target="t49LLacQzpLt2Tf5FMU3-89">
          <mxGeometry width="50" height="50" relative="1" as="geometry">
            <mxPoint x="415.38" y="360" as="sourcePoint" />
            <mxPoint x="465.38" y="310" as="targetPoint" />
          </mxGeometry>
        </mxCell>
        <mxCell id="t49LLacQzpLt2Tf5FMU3-100" value="Pictures" style="swimlane;fontStyle=1;childLayout=stackLayout;horizontal=1;startSize=26;fillColor=#f5f5f5;horizontalStack=0;resizeParent=1;resizeParentMax=0;resizeLast=0;collapsible=1;marginBottom=0;rounded=0;sketch=0;strokeColor=default;fontColor=#333333;" vertex="1" parent="WIyWlLk6GJQsqaUBKTNV-1">
          <mxGeometry x="420" y="10" width="110.77" height="156" as="geometry" />
        </mxCell>
        <mxCell id="t49LLacQzpLt2Tf5FMU3-101" value="Id" style="text;strokeColor=none;fillColor=none;align=left;verticalAlign=middle;spacingLeft=4;spacingRight=4;overflow=hidden;rotatable=0;points=[[0,0.5],[1,0.5]];portConstraint=eastwest;rounded=0;sketch=0;fontSize=10;fontStyle=0" vertex="1" parent="t49LLacQzpLt2Tf5FMU3-100">
          <mxGeometry y="26" width="110.77" height="26" as="geometry" />
        </mxCell>
        <mxCell id="t49LLacQzpLt2Tf5FMU3-102" value="name " style="text;strokeColor=none;fillColor=none;align=left;verticalAlign=middle;spacingLeft=4;spacingRight=4;overflow=hidden;rotatable=0;points=[[0,0.5],[1,0.5]];portConstraint=eastwest;rounded=0;sketch=0;fontSize=10;fontStyle=0" vertex="1" parent="t49LLacQzpLt2Tf5FMU3-100">
          <mxGeometry y="52" width="110.77" height="26" as="geometry" />
        </mxCell>
        <mxCell id="t49LLacQzpLt2Tf5FMU3-103" value="ad_id" style="text;strokeColor=none;fillColor=none;align=left;verticalAlign=middle;spacingLeft=4;spacingRight=4;overflow=hidden;rotatable=0;points=[[0,0.5],[1,0.5]];portConstraint=eastwest;rounded=0;sketch=0;fontSize=10;fontStyle=0" vertex="1" parent="t49LLacQzpLt2Tf5FMU3-100">
          <mxGeometry y="78" width="110.77" height="26" as="geometry" />
        </mxCell>
        <mxCell id="t49LLacQzpLt2Tf5FMU3-107" value="create_at" style="text;strokeColor=none;fillColor=none;align=left;verticalAlign=middle;spacingLeft=4;spacingRight=4;overflow=hidden;rotatable=0;points=[[0,0.5],[1,0.5]];portConstraint=eastwest;rounded=0;sketch=0;fontSize=10;fontStyle=0" vertex="1" parent="t49LLacQzpLt2Tf5FMU3-100">
          <mxGeometry y="104" width="110.77" height="26" as="geometry" />
        </mxCell>
        <mxCell id="t49LLacQzpLt2Tf5FMU3-108" value="update_at" style="text;strokeColor=none;fillColor=none;align=left;verticalAlign=middle;spacingLeft=4;spacingRight=4;overflow=hidden;rotatable=0;points=[[0,0.5],[1,0.5]];portConstraint=eastwest;rounded=0;sketch=0;fontSize=10;fontStyle=0" vertex="1" parent="t49LLacQzpLt2Tf5FMU3-100">
          <mxGeometry y="130" width="110.77" height="26" as="geometry" />
        </mxCell>
        <mxCell id="t49LLacQzpLt2Tf5FMU3-110" value="" style="endArrow=classic;html=1;rounded=1;sketch=0;fontSize=10;" edge="1" parent="WIyWlLk6GJQsqaUBKTNV-1">
          <mxGeometry width="50" height="50" relative="1" as="geometry">
            <mxPoint x="355.77" y="100" as="sourcePoint" />
            <mxPoint x="420" y="100" as="targetPoint" />
          </mxGeometry>
        </mxCell>
      </root>
    </mxGraphModel>
  </diagram>
</mxfile>
